<svg width="34" height="44" viewBox="0 0 34 44" fill="none" xmlns="http://www.w3.org/2000/svg">
<path d="M19.5119 19.0254L19.4103 19.1356C18.2814 20.3592 16.3253 20.4426 15.1164 19.3128C13.8993 18.1753 13.8156 16.201 14.9403 14.9819C16.0664 13.7614 17.9285 13.6686 19.1938 14.7631C20.4356 15.887 20.5754 17.7624 19.5119 19.0254Z" fill="white" stroke="black"/>
<path d="M18.4652 4.47428L18.4652 4.47426L18.4612 4.47032C17.2766 3.30453 15.7172 2.25209 13.7554 1.83286C12.9179 1.65388 12.016 1.59224 11.0489 1.68166C17.0482 -0.733393 24.0724 0.571418 28.8197 5.43042L28.8197 5.43043L28.8227 5.43341C29.0711 5.68349 29.3053 5.91977 29.5185 6.166C27.9994 7.69208 25.9905 8.6606 23.8492 8.85327H23.7197H23.5681C22.8184 8.85327 22.078 8.81359 21.3432 8.70126C20.8305 7.53323 20.1408 6.41707 19.3144 5.43542C19.0419 5.05463 18.7681 4.77913 18.4751 4.48423L18.4652 4.47428Z" fill="white" stroke="black"/>
<path d="M6.68349 15.3972H6.7077L6.72123 15.4176C7.11057 16.0721 7.42355 16.7278 7.695 17.4222C6.98033 18.4668 6.36078 19.6432 5.92075 20.8694C5.75676 21.2587 5.64905 21.6925 5.55259 22.0809L5.5477 22.1006C5.15297 23.6897 5.02865 25.567 5.63184 27.4827C5.89801 28.3281 6.30329 29.1726 6.88049 29.9968C1.7556 25.9796 -0.683116 19.1477 1.05861 12.5842L1.06267 12.5689L1.06575 12.5534C1.13214 12.2193 1.24355 11.8943 1.36174 11.555C3.45236 12.107 5.26641 13.3899 6.53409 15.1856L6.68349 15.3972Z" fill="white" stroke="black"/>
<path d="M27.177 24.5366L27.1845 24.5347L27.1921 24.5325C28.7715 24.0821 30.4542 23.2539 31.8026 21.7684C32.4032 21.1068 32.9313 20.3216 33.3534 19.3932C32.4859 25.851 27.8416 31.3814 21.3247 33.179C21.01 33.2493 20.6704 33.3197 20.3211 33.3906C19.7454 31.3086 19.9461 29.0441 20.8406 27.054L20.8511 27.0306L20.8592 27.0062L20.9097 26.8536L20.9511 26.7287C21.2441 26.1042 21.6511 25.5062 22.1151 24.9331C23.3935 25.055 24.7053 24.9956 25.9665 24.8005C26.3454 24.7458 26.7694 24.6391 27.1613 24.5405L27.177 24.5366Z" fill="white" stroke="black"/>
<path d="M11.3659 12.6154L11.3659 12.6155C10.7001 14.802 9.79257 15.9463 9.19993 16.5073C7.96736 13.3571 5.33699 10.9656 2.07707 10.0754C3.21888 7.55684 5.02295 5.39594 7.25155 3.83214C10.8198 2.00941 13.4285 2.37475 15.1296 3.1519C15.9936 3.54665 16.641 4.05589 17.0707 4.47063C17.1702 4.56668 17.2576 4.65722 17.3328 4.73953C14.5682 6.14655 12.4809 8.95604 11.3659 12.6154Z" fill="white" stroke="black"/>
<path d="M18.1662 30.8672C18.1662 31.7761 18.2713 32.6915 18.5133 33.5828C15.7814 33.7977 13.0295 33.2966 10.5722 32.1585C7.23204 29.9552 6.249 27.5038 6.06289 25.6424C5.96839 24.6972 6.07775 23.8853 6.21045 23.311C6.23661 23.1978 6.26362 23.094 6.29006 23.0006C7.55139 23.7713 9.12201 24.1858 10.7847 24.3276C12.7081 24.4917 14.795 24.2946 16.7582 23.8269C18.2653 23.4847 19.2696 23.543 19.9159 23.7042C20.2349 23.7838 20.4728 23.89 20.6459 23.9914C19.0504 25.915 18.1662 28.3672 18.1662 30.8672Z" fill="white" stroke="black"/>
<path d="M27.9027 23.3047C27.795 23.3376 27.6948 23.3654 27.6032 23.3886C27.6424 21.9032 27.2056 20.3362 26.4901 18.8224C25.6625 17.0712 24.4441 15.3523 23.0794 13.8491L23.0794 13.8491L23.0758 13.8452C21.569 12.2204 21.2818 11.0596 21.2699 10.446C21.8628 10.5505 22.4859 10.6164 23.1134 10.6164C25.9295 10.6164 28.6091 9.50421 30.5923 7.49645C32.1426 9.74848 33.0922 12.3613 33.3254 15.0574C33.0984 19.0872 31.4809 21.1747 29.9763 22.2681C29.2123 22.8232 28.4613 23.1336 27.9027 23.3047Z" fill="white" stroke="black"/>
<mask id="path-8-inside-1_1_2648" fill="white">
<path d="M3.15277 43.5824H2.24316V39.2593H3.70863C4.76984 39.2593 5.4773 39.717 5.4773 40.6834C5.4773 41.6497 4.76984 42.2092 3.60757 42.2092H3.15277V43.5824ZM3.15277 41.3954H3.6581C4.21397 41.3954 4.5677 41.192 4.5677 40.7342C4.5677 40.2765 4.2645 40.073 3.70863 40.073H3.2033L3.15277 41.3954Z"/>
</mask>
<path d="M3.15277 43.5824H2.24316V39.2593H3.70863C4.76984 39.2593 5.4773 39.717 5.4773 40.6834C5.4773 41.6497 4.76984 42.2092 3.60757 42.2092H3.15277V43.5824ZM3.15277 41.3954H3.6581C4.21397 41.3954 4.5677 41.192 4.5677 40.7342C4.5677 40.2765 4.2645 40.073 3.70863 40.073H3.2033L3.15277 41.3954Z" fill="white"/>
<path d="M3.15277 43.5824V44.5824H4.15277V43.5824H3.15277ZM2.24316 43.5824H1.24316V44.5824H2.24316V43.5824ZM2.24316 39.2593V38.2593H1.24316V39.2593H2.24316ZM3.15277 42.2092V41.2092H2.15277V42.2092H3.15277ZM3.15277 41.3954L2.1535 41.3572L2.11382 42.3954H3.15277V41.3954ZM3.2033 40.073V39.073H2.24078L2.20403 40.0349L3.2033 40.073ZM3.15277 42.5824H2.24316V44.5824H3.15277V42.5824ZM3.24316 43.5824V39.2593H1.24316V43.5824H3.24316ZM2.24316 40.2593H3.70863V38.2593H2.24316V40.2593ZM3.70863 40.2593C4.11594 40.2593 4.31337 40.35 4.38584 40.4051C4.41584 40.4279 4.43127 40.4486 4.44296 40.4738C4.45597 40.5019 4.4773 40.5646 4.4773 40.6834H6.4773C6.4773 39.9279 6.18467 39.2602 5.596 38.8128C5.04943 38.3974 4.36253 38.2593 3.70863 38.2593V40.2593ZM4.4773 40.6834C4.4773 40.9004 4.41035 40.9818 4.34928 41.0313C4.26014 41.1034 4.04224 41.2092 3.60757 41.2092V43.2092C4.33517 43.2092 5.05213 43.0352 5.6073 42.5861C6.19052 42.1142 6.4773 41.4327 6.4773 40.6834H4.4773ZM3.60757 41.2092H3.15277V43.2092H3.60757V41.2092ZM2.15277 42.2092V43.5824H4.15277V42.2092H2.15277ZM3.15277 42.3954H3.6581V40.3954H3.15277V42.3954ZM3.6581 42.3954C4.03108 42.3954 4.49155 42.3318 4.88614 42.0617C5.34136 41.7502 5.5677 41.2617 5.5677 40.7342H3.5677C3.5677 40.7184 3.57136 40.6591 3.60986 40.5824C3.64973 40.5029 3.7066 40.4454 3.75656 40.4112C3.80112 40.3807 3.82545 40.3784 3.80545 40.3831C3.78568 40.3878 3.73878 40.3954 3.6581 40.3954V42.3954ZM5.5677 40.7342C5.5677 40.2628 5.39617 39.7664 4.94349 39.4296C4.54773 39.1352 4.07829 39.073 3.70863 39.073V41.073C3.78999 41.073 3.82953 41.0808 3.83847 41.083C3.8464 41.085 3.80675 41.0767 3.74975 41.0343C3.68676 40.9875 3.63179 40.9203 3.59793 40.8442C3.56682 40.7742 3.5677 40.7289 3.5677 40.7342H5.5677ZM3.70863 39.073H3.2033V41.073H3.70863V39.073ZM2.20403 40.0349L2.1535 41.3572L4.15204 41.4336L4.20257 40.1112L2.20403 40.0349Z" fill="black" mask="url(#path-8-inside-1_1_2648)"/>
<path d="M6.63379 41.3953C6.63379 41.2024 6.65171 41.029 6.68405 40.8736C6.65697 41.0392 6.64446 41.2139 6.64446 41.3953C6.64446 41.6809 6.68221 41.9463 6.75956 42.1844C6.68064 41.9683 6.63379 41.7072 6.63379 41.3953Z" fill="white" stroke="black"/>
<path d="M12.0446 40.1545C12.0762 40.1233 12.1098 40.0933 12.1455 40.0647C11.806 40.404 11.5971 40.8744 11.5971 41.395C11.5971 42.2287 12.1328 42.9337 12.8826 43.1772C12.2155 43.081 11.6624 42.5153 11.5864 41.7779V41.7775V41.7769V41.7763V41.7757V41.7751V41.7745V41.7739V41.7733V41.7727V41.7721V41.7715V41.7709V41.7703V41.7697V41.7691V41.7685V41.7679V41.7673V41.7667V41.7661V41.7655V41.7649V41.7643V41.7637V41.7631V41.7626V41.762V41.7614V41.7608V41.7602V41.7596V41.759V41.7584V41.7578V41.7572V41.7566V41.756V41.7554V41.7548V41.7542V41.7536V41.753V41.7524V41.7518V41.7512V41.7506V41.75V41.7494V41.7488V41.7482V41.7476V41.7471V41.7465V41.7459V41.7453V41.7447V41.7441V41.7435V41.7429V41.7423V41.7417V41.7411V41.7405V41.7399V41.7393V41.7387V41.7381V41.7375V41.7369V41.7363V41.7357V41.7351V41.7345V41.7339V41.7333V41.7327V41.7322V41.7316V41.731V41.7304V41.7298V41.7292V41.7286V41.728V41.7274V41.7268V41.7262V41.7256V41.725V41.7244V41.7238V41.7232V41.7226V41.722V41.7214V41.7208V41.7202V41.7196V41.719V41.7184V41.7178V41.7173V41.7167V41.7161V41.7155V41.7149V41.7143V41.7137V41.7131V41.7125V41.7119V41.7113V41.7107V41.7101V41.7095V41.7089V41.7083V41.7077V41.7071V41.7065V41.7059V41.7053V41.7047V41.7041V41.7035V41.7029V41.7024V41.7018V41.7012V41.7006V41.7V41.6994V41.6988V41.6982V41.6976V41.697V41.6964V41.6958V41.6952V41.6946V41.694V41.6934V41.6928V41.6922V41.6916V41.691V41.6904V41.6898V41.6892V41.6886V41.688V41.6875V41.6869V41.6863V41.6857V41.6851V41.6845V41.6839V41.6833V41.6827V41.6821V41.6815V41.6809V41.6803V41.6797V41.6791V41.6785V41.6779V41.6773V41.6767V41.6761V41.6755V41.6749V41.6743V41.6737V41.6731V41.6726V41.672V41.6714V41.6708V41.6702V41.6696V41.669V41.6684V41.6678V41.6672V41.6666V41.666V41.6654V41.6648V41.6642V41.6636V41.663V41.6624V41.6618V41.6612V41.6606V41.66V41.6594V41.6588V41.6582V41.6577V41.6571V41.6565V41.6559V41.6553V41.6547V41.6541V41.6535V41.6529V41.6523V41.6517V41.6511V41.6505V41.6499V41.6493V41.6487V41.6481V41.6475V41.6469V41.6463V41.6457V41.6451V41.6445V41.6439V41.6433V41.6428V41.6422V41.6416V41.641V41.6404V41.6398V41.6392V41.6386V41.638V41.6374V41.6368V41.6362V41.6356V41.635V41.6344V41.6338V41.6332V41.6326V41.632V41.6314V41.6308V41.6302V41.6296V41.629V41.6284V41.6278V41.6273V41.6267V41.6261V41.6255V41.6249V41.6243V41.6237V41.6231V41.6225V41.6219V41.6213V41.6207V41.6201V41.6195V41.6189V41.6183V41.6177V41.6171V41.6165V41.6159V41.6153V41.6147V41.6141V41.6135V41.6129V41.6124V41.6118V41.6112V41.6106V41.61V41.6094V41.6088V41.6082V41.6076V41.607V41.6064V41.6058V41.6052V41.6046V41.604V41.6034V41.6028V41.6022V41.6016V41.601V41.6004V41.5998V41.5992V41.5986V41.598V41.5975V41.5969V41.5963V41.5957V41.5951V41.5945V41.5939V41.5933V41.5927V41.5921V41.5915V41.5909V41.5903V41.5897V41.5891V41.5885V41.5879V41.5873V41.5867V41.5861V41.5855V41.5849V41.5843V41.5837V41.5831V41.5826V41.582V41.5814V41.5808V41.5802V41.5796V41.579V41.5784V41.5778V41.5772V41.5766V41.576V41.5754V41.5748V41.5742V41.5736V41.573V41.5724V41.5718V41.5712V41.5706V41.57V41.5694V41.5688V41.5682V41.5677V41.5671V41.5665V41.5659V41.5653V41.5647V41.5641V41.5635V41.5629V41.5623V41.5617V41.5611V41.5605V41.5599V41.5593V41.5587V41.5581V41.5575V41.5569V41.5563V41.5557V41.5551V41.5545V41.5539V41.5533V41.5528V41.5522V41.5516V41.551V41.5504V41.5498V41.5492V41.5486V41.548V41.5474V41.5468V41.5462V41.5456V41.545V41.5444V41.5438V41.5432V41.5426V41.542V41.5414V41.5408V41.5402V41.5396V41.539V41.5384V41.5379V41.5373V41.5367V41.5361V41.5355V41.5349V41.5343V41.5337V41.5331V41.5325V41.5319V41.5313V41.5307V41.5301V41.5295V41.5289V41.5283V41.5277V41.5271V41.5265V41.5259V41.5253V41.5247V41.5241V41.5235V41.523V41.5224V41.5218V41.5212V41.5206V41.52V41.5194V41.5188V41.5182V41.5176V41.517V41.5164V41.5158V41.5152V41.5146V41.514V41.5134V41.5128V41.5122V41.5116V41.511V41.5104V41.5098V41.5092V41.5086V41.5081V41.5075V41.5069V41.5063V41.5057V41.5051V41.5045V41.5039V41.5033V41.5027V41.5021V41.5015V41.5009V41.5003V41.4997V41.4991V41.4985V41.4979V41.4973V41.4967C11.5864 40.8561 11.771 40.4255 12.0446 40.1545Z" fill="white" stroke="black"/>
<mask id="path-12-inside-2_1_2648" fill="white">
<path d="M17.8072 42.4126H15.988L15.5837 43.5824H15.0278L16.6449 39.2593H17.2008L18.8178 43.5824H18.262L17.8072 42.4126ZM16.1396 41.904H17.605L16.8976 39.8696L16.1396 41.904Z"/>
</mask>
<path d="M17.8072 42.4126H15.988L15.5837 43.5824H15.0278L16.6449 39.2593H17.2008L18.8178 43.5824H18.262L17.8072 42.4126ZM16.1396 41.904H17.605L16.8976 39.8696L16.1396 41.904Z" fill="white"/>
<path d="M17.8072 42.4126L18.7392 42.0503L18.4913 41.4126H17.8072V42.4126ZM15.988 42.4126V41.4126H15.2755L15.0428 42.086L15.988 42.4126ZM15.5837 43.5824V44.5824H16.2961L16.5289 43.909L15.5837 43.5824ZM15.0278 43.5824L14.0912 43.2321L13.5861 44.5824H15.0278V43.5824ZM16.6449 39.2593V38.2593H15.9513L15.7083 38.9089L16.6449 39.2593ZM17.2008 39.2593L18.1374 38.9089L17.8944 38.2593H17.2008V39.2593ZM18.8178 43.5824V44.5824H20.2596L19.7545 43.2321L18.8178 43.5824ZM18.262 43.5824L17.3299 43.9448L17.5778 44.5824H18.262V43.5824ZM16.1396 41.904L15.2025 41.5549L14.6998 42.904H16.1396V41.904ZM17.605 41.904V42.904H19.0115L18.5496 41.5756L17.605 41.904ZM16.8976 39.8696L17.8421 39.5411L16.93 36.9184L15.9605 39.5205L16.8976 39.8696ZM17.8072 41.4126H15.988V43.4126H17.8072V41.4126ZM15.0428 42.086L14.6385 43.2558L16.5289 43.909L16.9331 42.7393L15.0428 42.086ZM15.5837 42.5824H15.0278V44.5824H15.5837V42.5824ZM15.9645 43.9328L17.5815 39.6096L15.7083 38.9089L14.0912 43.2321L15.9645 43.9328ZM16.6449 40.2593H17.2008V38.2593H16.6449V40.2593ZM16.2641 39.6096L17.8812 43.9328L19.7545 43.2321L18.1374 38.9089L16.2641 39.6096ZM18.8178 42.5824H18.262V44.5824H18.8178V42.5824ZM19.194 43.22L18.7392 42.0503L16.8751 42.775L17.3299 43.9448L19.194 43.22ZM16.1396 42.904H17.605V40.904H16.1396V42.904ZM18.5496 41.5756L17.8421 39.5411L15.9531 40.1981L16.6605 42.2325L18.5496 41.5756ZM15.9605 39.5205L15.2025 41.5549L17.0766 42.2532L17.8346 40.2187L15.9605 39.5205Z" fill="black" mask="url(#path-12-inside-2_1_2648)"/>
<mask id="path-14-inside-3_1_2648" fill="white">
<path d="M20.6879 43.5824H20.132V39.7679H18.8687V39.2593H21.9512V39.7679H20.6879V43.5824Z"/>
</mask>
<path d="M20.6879 43.5824H20.132V39.7679H18.8687V39.2593H21.9512V39.7679H20.6879V43.5824Z" fill="white"/>
<path d="M20.6879 43.5824V44.5824H21.6879V43.5824H20.6879ZM20.132 43.5824H19.132V44.5824H20.132V43.5824ZM20.132 39.7679H21.132V38.7679H20.132V39.7679ZM18.8687 39.7679H17.8687V40.7679H18.8687V39.7679ZM18.8687 39.2593V38.2593H17.8687V39.2593H18.8687ZM21.9512 39.2593H22.9512V38.2593H21.9512V39.2593ZM21.9512 39.7679V40.7679H22.9512V39.7679H21.9512ZM20.6879 39.7679V38.7679H19.6879V39.7679H20.6879ZM20.6879 42.5824H20.132V44.5824H20.6879V42.5824ZM21.132 43.5824V39.7679H19.132V43.5824H21.132ZM20.132 38.7679H18.8687V40.7679H20.132V38.7679ZM19.8687 39.7679V39.2593H17.8687V39.7679H19.8687ZM18.8687 40.2593H21.9512V38.2593H18.8687V40.2593ZM20.9512 39.2593V39.7679H22.9512V39.2593H20.9512ZM21.9512 38.7679H20.6879V40.7679H21.9512V38.7679ZM19.6879 39.7679V43.5824H21.6879V39.7679H19.6879Z" fill="black" mask="url(#path-14-inside-3_1_2648)"/>
<mask id="path-16-inside-4_1_2648" fill="white">
<path d="M22.5576 41.3953C22.5576 40.0221 23.3662 39.1575 24.4779 39.1575C25.7412 39.1575 26.4487 40.073 26.4487 41.3953C26.4487 42.8703 25.6402 43.6332 24.5284 43.6332C23.4167 43.6332 22.5576 42.7686 22.5576 41.3953ZM25.8423 41.3953C25.8423 40.2255 25.337 39.6661 24.4779 39.6661C23.7199 39.6661 23.1135 40.2255 23.1135 41.3953C23.1135 42.5651 23.6694 43.1246 24.5284 43.1246C25.3875 43.1246 25.8423 42.5143 25.8423 41.3953Z"/>
</mask>
<path d="M22.5576 41.3953C22.5576 40.0221 23.3662 39.1575 24.4779 39.1575C25.7412 39.1575 26.4487 40.073 26.4487 41.3953C26.4487 42.8703 25.6402 43.6332 24.5284 43.6332C23.4167 43.6332 22.5576 42.7686 22.5576 41.3953ZM25.8423 41.3953C25.8423 40.2255 25.337 39.6661 24.4779 39.6661C23.7199 39.6661 23.1135 40.2255 23.1135 41.3953C23.1135 42.5651 23.6694 43.1246 24.5284 43.1246C25.3875 43.1246 25.8423 42.5143 25.8423 41.3953Z" fill="white"/>
<path d="M23.5576 41.3953C23.5576 40.9026 23.701 40.5933 23.8517 40.4219C23.9945 40.2595 24.1964 40.1575 24.4779 40.1575V38.1575C23.6476 38.1575 22.8894 38.4877 22.35 39.101C21.8185 39.7052 21.5576 40.5149 21.5576 41.3953H23.5576ZM24.4779 40.1575C24.8488 40.1575 25.0503 40.2812 25.1749 40.4279C25.317 40.5952 25.4487 40.9029 25.4487 41.3953H27.4487C27.4487 40.5654 27.2267 39.7542 26.6992 39.1332C26.1542 38.4914 25.3703 38.1575 24.4779 38.1575V40.1575ZM25.4487 41.3953C25.4487 41.9546 25.2972 42.2499 25.1656 42.3946C25.0421 42.5305 24.8471 42.6332 24.5284 42.6332V44.6332C25.3215 44.6332 26.0867 44.3545 26.6453 43.7402C27.1959 43.1347 27.4487 42.311 27.4487 41.3953H25.4487ZM24.5284 42.6332C24.2431 42.6332 24.0222 42.5277 23.8649 42.3553C23.7041 42.179 23.5576 41.8722 23.5576 41.3953H21.5576C21.5576 42.2917 21.8407 43.1038 22.3873 43.7031C22.9375 44.3064 23.702 44.6332 24.5284 44.6332V42.6332ZM26.8423 41.3953C26.8423 40.6873 26.6922 39.9925 26.2567 39.4594C25.7932 38.892 25.1384 38.6661 24.4779 38.6661V40.6661C24.585 40.6661 24.6419 40.6835 24.6658 40.6936C24.6851 40.7017 24.6955 40.7096 24.7078 40.7247C24.7397 40.7637 24.8423 40.9335 24.8423 41.3953H26.8423ZM24.4779 38.6661C23.8401 38.6661 23.2101 38.9094 22.7537 39.4395C22.3087 39.9562 22.1135 40.6449 22.1135 41.3953H24.1135C24.1135 40.976 24.2214 40.8 24.2692 40.7445C24.3055 40.7025 24.3577 40.6661 24.4779 40.6661V38.6661ZM22.1135 41.3953C22.1135 42.1241 22.2856 42.8223 22.741 43.3511C23.2154 43.9021 23.8717 44.1246 24.5284 44.1246V42.1246C24.3261 42.1246 24.2749 42.0674 24.2566 42.0461C24.2193 42.0028 24.1135 41.8364 24.1135 41.3953H22.1135ZM24.5284 44.1246C25.2205 44.1246 25.8664 43.863 26.3052 43.2826C26.7094 42.7479 26.8423 42.0671 26.8423 41.3953H24.8423C24.8423 41.8425 24.7478 42.0263 24.7098 42.0765C24.6963 42.0944 24.6887 42.0985 24.6804 42.1022C24.6683 42.1078 24.6246 42.1246 24.5284 42.1246V44.1246Z" fill="black" mask="url(#path-16-inside-4_1_2648)"/>
<mask id="path-18-inside-5_1_2648" fill="white">
<path d="M31.8049 43.5824H31.249L30.9963 40.1748L29.8846 43.5824H29.3287L28.2675 40.2256L28.0149 43.5824H27.459L27.8127 39.2593H28.4697L29.6319 42.9721L30.7942 39.2593H31.4511L31.8049 43.5824Z"/>
</mask>
<path d="M31.8049 43.5824H31.249L30.9963 40.1748L29.8846 43.5824H29.3287L28.2675 40.2256L28.0149 43.5824H27.459L27.8127 39.2593H28.4697L29.6319 42.9721L30.7942 39.2593H31.4511L31.8049 43.5824Z" fill="white"/>
<path d="M31.8049 43.5824V44.5824H32.89L32.8015 43.5009L31.8049 43.5824ZM31.249 43.5824L30.2517 43.6564L30.3204 44.5824H31.249V43.5824ZM30.9963 40.1748L31.9936 40.1008L30.0456 39.8646L30.9963 40.1748ZM29.8846 43.5824V44.5824H30.6102L30.8353 43.8926L29.8846 43.5824ZM29.3287 43.5824L28.3752 43.8838L28.5961 44.5824H29.3287V43.5824ZM28.2675 40.2256L29.221 39.9242L27.2703 40.1506L28.2675 40.2256ZM28.0149 43.5824V44.5824H28.9424L29.012 43.6575L28.0149 43.5824ZM27.459 43.5824L26.4623 43.5009L26.3738 44.5824H27.459V43.5824ZM27.8127 39.2593V38.2593H26.8912L26.816 39.1777L27.8127 39.2593ZM28.4697 39.2593L29.424 38.9605L29.2045 38.2593H28.4697V39.2593ZM29.6319 42.9721L28.6776 43.2708L29.6319 46.3194L30.5863 43.2708L29.6319 42.9721ZM30.7942 39.2593V38.2593H30.0594L29.8399 38.9605L30.7942 39.2593ZM31.4511 39.2593L32.4478 39.1777L32.3726 38.2593H31.4511V39.2593ZM31.8049 42.5824H31.249V44.5824H31.8049V42.5824ZM32.2463 43.5085L31.9936 40.1008L29.9991 40.2487L30.2517 43.6564L32.2463 43.5085ZM30.0456 39.8646L28.9339 43.2723L30.8353 43.8926L31.947 40.4849L30.0456 39.8646ZM29.8846 42.5824H29.3287V44.5824H29.8846V42.5824ZM30.2822 43.281L29.221 39.9242L27.314 40.5271L28.3752 43.8838L30.2822 43.281ZM27.2703 40.1506L27.0177 43.5074L29.012 43.6575L29.2647 40.3007L27.2703 40.1506ZM28.0149 42.5824H27.459V44.5824H28.0149V42.5824ZM28.4557 43.664L28.8094 39.3408L26.816 39.1777L26.4623 43.5009L28.4557 43.664ZM27.8127 40.2593H28.4697V38.2593H27.8127V40.2593ZM27.5153 39.558L28.6776 43.2708L30.5863 42.6733L29.424 38.9605L27.5153 39.558ZM30.5863 43.2708L31.7485 39.558L29.8399 38.9605L28.6776 42.6733L30.5863 43.2708ZM30.7942 40.2593H31.4511V38.2593H30.7942V40.2593ZM30.4545 39.3408L30.8082 43.664L32.8015 43.5009L32.4478 39.1777L30.4545 39.3408Z" fill="black" mask="url(#path-18-inside-5_1_2648)"/>
</svg>
